<svg version="1.1" xmlns="http://www.w3.org/2000/svg" x="0px"
	 y="0px" viewBox="0 0 12 14" style="enable-background:new 0 0 12 14;" xml:space="preserve">
<path style="fill:#444444;" d="M10.998,13h-3.5c-0.135,0-0.253-0.049-0.352-0.148c-0.099-0.099-0.149-0.216-0.148-0.352V9
	c0-0.219,0.104-0.372,0.312-0.461C7.513,8.45,7.693,8.487,7.849,8.648l1.078,1.078c0.713-0.771,1.07-1.68,1.07-2.727
	c0-0.542-0.105-1.059-0.316-1.551C9.47,4.956,9.185,4.53,8.826,4.171C8.467,3.812,8.041,3.527,7.549,3.316S6.54,3,5.998,3
	S4.939,3.105,4.447,3.316S3.529,3.812,3.17,4.171C2.811,4.53,2.526,4.956,2.315,5.448S1.999,6.457,1.999,6.999
	c0,0.62,0.135,1.206,0.406,1.758s0.653,1.018,1.148,1.398c0.052,0.037,0.083,0.097,0.094,0.18c0,0.073-0.023,0.138-0.07,0.195
	L2.499,11.6c-0.041,0.047-0.095,0.071-0.16,0.074s-0.124-0.017-0.176-0.059c-0.687-0.568-1.22-1.255-1.598-2.062
	C0.187,8.746-0.002,7.895-0.001,6.998c0-0.813,0.159-1.589,0.477-2.328c0.318-0.739,0.745-1.377,1.281-1.914
	c0.536-0.537,1.174-0.964,1.914-1.281s1.516-0.476,2.328-0.477c0.812-0.001,1.588,0.158,2.328,0.477s1.378,0.746,1.914,1.281
	c0.536,0.535,0.963,1.173,1.281,1.914c0.318,0.741,0.477,1.517,0.477,2.328c0,0.765-0.145,1.506-0.434,2.223
	c-0.289,0.717-0.697,1.353-1.223,1.91l1.008,1.016c0.161,0.151,0.198,0.334,0.109,0.547c-0.089,0.203-0.242,0.305-0.461,0.305
	L10.998,13z"/>
</svg>
